<?xml version="1.0" encoding="UTF-8"?>
<svg id="Layer_2" data-name="Layer 2" xmlns="http://www.w3.org/2000/svg" xmlns:xlink="http://www.w3.org/1999/xlink" viewBox="0 0 771.29 319.47">
  <defs>
    <style>
      .cls-1 {
        fill: url(#linear-gradient-8);
      }

      .cls-2 {
        fill: url(#linear-gradient-7);
      }

      .cls-3 {
        fill: url(#linear-gradient-5);
      }

      .cls-4 {
        fill: url(#linear-gradient-6);
      }

      .cls-5 {
        fill: url(#linear-gradient-9);
      }

      .cls-6 {
        fill: url(#linear-gradient-4);
      }

      .cls-7 {
        fill: url(#linear-gradient-3);
      }

      .cls-8 {
        fill: url(#linear-gradient-2);
      }

      .cls-9 {
        fill: url(#linear-gradient);
      }

      .cls-10 {
        fill: #40a147;
      }

      .cls-11 {
        fill: #fff;
      }

      .cls-12 {
        fill: url(#linear-gradient-10);
      }

      .cls-13 {
        fill: url(#linear-gradient-11);
      }

      .cls-14 {
        fill: url(#linear-gradient-12);
      }

      .cls-15 {
        fill: url(#linear-gradient-13);
      }

      .cls-16 {
        fill: url(#linear-gradient-19);
      }

      .cls-17 {
        fill: url(#linear-gradient-14);
      }

      .cls-18 {
        fill: url(#linear-gradient-15);
      }

      .cls-19 {
        fill: url(#linear-gradient-16);
      }

      .cls-20 {
        fill: url(#linear-gradient-17);
      }

      .cls-21 {
        fill: url(#linear-gradient-18);
      }

      .cls-22 {
        clip-path: url(#clippath);
      }
    </style>
    <linearGradient id="linear-gradient" x1="120.98" y1="-8.52" x2="225.3" y2="103.08" gradientUnits="userSpaceOnUse">
      <stop offset="0" stop-color="#fff290"/>
      <stop offset=".04" stop-color="#f5dc78"/>
      <stop offset=".1" stop-color="#e8bb53"/>
      <stop offset=".24" stop-color="#ac772b"/>
      <stop offset=".38" stop-color="#834f20"/>
      <stop offset=".52" stop-color="#ac772b"/>
      <stop offset=".71" stop-color="#fad167"/>
      <stop offset=".85" stop-color="#fcf49c"/>
      <stop offset=".89" stop-color="#faf199"/>
      <stop offset=".92" stop-color="#f5e78f"/>
      <stop offset=".94" stop-color="#edd77f"/>
      <stop offset=".96" stop-color="#e1c168"/>
      <stop offset=".98" stop-color="#d2a44b"/>
      <stop offset="1" stop-color="#c4882f"/>
    </linearGradient>
    <linearGradient id="linear-gradient-2" x1="246.89" y1="195.98" x2="445.83" y2="-14.48" gradientUnits="userSpaceOnUse">
      <stop offset="0" stop-color="#fff290"/>
      <stop offset=".04" stop-color="#f5dc78"/>
      <stop offset=".1" stop-color="#e8bb53"/>
      <stop offset=".24" stop-color="#ac772b"/>
      <stop offset=".38" stop-color="#834f20"/>
      <stop offset=".56" stop-color="#ac772b"/>
      <stop offset=".83" stop-color="#fad167"/>
      <stop offset=".85" stop-color="#fcf49c"/>
      <stop offset=".89" stop-color="#faf199"/>
      <stop offset=".92" stop-color="#f5e78f"/>
      <stop offset=".94" stop-color="#edd77f"/>
      <stop offset=".96" stop-color="#e1c168"/>
      <stop offset=".98" stop-color="#d2a44b"/>
      <stop offset="1" stop-color="#c4882f"/>
    </linearGradient>
    <clipPath id="clippath">
      <path class="cls-8" d="M387.05,53.63c-.61-.5-1.25-.98-1.88-1.45-10.06-7.42-22.55-11.83-36.01-11.83-1.59,0-3.18.07-4.79.18-28.27,2.18-53.88,28.07-55.77,56.38-.39,5.9.07,11.63,1.25,17.1,5.93,27.29,30.22,47.73,59.31,47.73v-11.47c0-8.95-5.43-16.8-13.51-20.62-11.13-5.29-18.71-16.87-18.1-30.11.11-2.38.5-4.7,1.11-6.9h.02c3.63-12.94,15.46-22.71,29.31-23.21.39-.02.77-.02,1.16-.02,8.04,0,15.39,3.04,20.98,8.02.61.54,1.29,1.02,2,1.41,1.5.89,3.18,1.36,4.95,1.36h.48c3.34,0,6.24-1,8.58-2.66.05,0,.07-.05.11-.07,7.45-5.31,9.13-17.17.79-23.84Z"/>
    </clipPath>
    <linearGradient id="linear-gradient-3" x1="398.38" y1="224.49" x2="249.79" y2="41.32" gradientUnits="userSpaceOnUse">
      <stop offset="0" stop-color="#fff290"/>
      <stop offset=".04" stop-color="#f5dc78"/>
      <stop offset=".1" stop-color="#e8bb53"/>
      <stop offset=".24" stop-color="#ac772b"/>
      <stop offset=".38" stop-color="#834f20"/>
      <stop offset=".53" stop-color="#ac772b"/>
      <stop offset=".56" stop-color="#af7b2d"/>
      <stop offset=".59" stop-color="#bb8836"/>
      <stop offset=".63" stop-color="#cd9d44"/>
      <stop offset=".66" stop-color="#e7bb58"/>
      <stop offset=".68" stop-color="#fad167"/>
      <stop offset=".85" stop-color="#fcf49c"/>
      <stop offset=".89" stop-color="#faf199"/>
      <stop offset=".92" stop-color="#f5e78f"/>
      <stop offset=".94" stop-color="#edd77f"/>
      <stop offset=".96" stop-color="#e1c168"/>
      <stop offset=".98" stop-color="#d2a44b"/>
      <stop offset="1" stop-color="#c4882f"/>
    </linearGradient>
    <linearGradient id="linear-gradient-4" x1="340.22" y1="90.38" x2="388.34" y2="147.4" xlink:href="#linear-gradient"/>
    <linearGradient id="linear-gradient-5" x1="-62.83" y1="296.24" x2="4570.15" y2="296.24" xlink:href="#linear-gradient"/>
    <linearGradient id="linear-gradient-6" x1="-62.83" y1="296.24" x2="4570.15" y2="296.24" xlink:href="#linear-gradient"/>
    <linearGradient id="linear-gradient-7" x1="-62.83" y1="296.24" x2="4570.15" y2="296.24" xlink:href="#linear-gradient"/>
    <linearGradient id="linear-gradient-8" x1="-62.83" y1="296.24" x2="4570.15" y2="296.24" xlink:href="#linear-gradient"/>
    <linearGradient id="linear-gradient-9" x1="-62.83" y1="296.24" x2="4570.15" y2="296.24" xlink:href="#linear-gradient"/>
    <linearGradient id="linear-gradient-10" x1="-62.83" y1="296.24" x2="4570.15" y2="296.24" xlink:href="#linear-gradient"/>
    <linearGradient id="linear-gradient-11" x1="-62.83" y1="296.24" x2="4570.15" y2="296.24" xlink:href="#linear-gradient"/>
    <linearGradient id="linear-gradient-12" x1="-62.83" y1="296.24" x2="4570.15" y2="296.24" xlink:href="#linear-gradient"/>
    <linearGradient id="linear-gradient-13" x1="-62.83" y1="296.24" x2="4570.15" y2="296.24" xlink:href="#linear-gradient"/>
    <linearGradient id="linear-gradient-14" x1="-62.83" y1="296.24" x2="4570.15" y2="296.24" xlink:href="#linear-gradient"/>
    <linearGradient id="linear-gradient-15" x1="-62.83" y1="296.24" x2="4570.15" y2="296.24" xlink:href="#linear-gradient"/>
    <linearGradient id="linear-gradient-16" x1="-62.83" y1="296.24" x2="4570.15" y2="296.24" xlink:href="#linear-gradient"/>
    <linearGradient id="linear-gradient-17" x1="-62.83" y1="296.24" x2="4570.15" y2="296.24" xlink:href="#linear-gradient"/>
    <linearGradient id="linear-gradient-18" x1="-62.83" y1="296.24" x2="4570.15" y2="296.24" xlink:href="#linear-gradient"/>
    <linearGradient id="linear-gradient-19" x1="-62.83" y1="296.24" x2="4570.15" y2="296.24" xlink:href="#linear-gradient"/>
  </defs>
  <g id="Layer_1-2" data-name="Layer 1">
    <g>
      <g>
        <g>
          <path class="cls-11" d="M0,237.77V104.88c0-9.12,1.56-17.33,4.67-24.62,3.11-7.3,7.33-13.45,12.65-18.47,5.32-5.02,11.63-8.85,18.92-11.51,7.3-2.66,15.12-3.99,23.48-3.99s16.53,1.41,23.6,4.22c7.07,2.81,13.18,6.8,18.35,11.97,5.17,5.17,9.15,11.32,11.97,18.47,2.81,7.15,4.22,15.13,4.22,23.94s-1.41,16.87-4.22,24.17c-2.81,7.3-6.73,13.53-11.74,18.7-5.02,5.17-11.02,9.16-18.01,11.97-6.99,2.81-14.59,4.22-22.8,4.22s-15.2-1.29-20.98-3.88c-5.77-2.58-10.03-5.62-12.76-9.12v86.84H0ZM90.51,105.1c0-10.64-2.85-18.92-8.55-24.85-5.7-5.93-13.34-8.89-22.91-8.89s-17.26,2.96-23.03,8.89c-5.77,5.93-8.66,14.21-8.66,24.85s2.89,18.92,8.66,24.85c5.77,5.93,13.45,8.89,23.03,8.89s17.21-2.96,22.91-8.89c5.7-5.93,8.55-14.21,8.55-24.85Z"/>
          <path class="cls-9" d="M128.13,15.05c0-4.1,1.44-7.64,4.33-10.6,2.89-2.96,6.46-4.45,10.72-4.45s7.83,1.48,10.72,4.45c2.89,2.96,4.33,6.5,4.33,10.6,0,4.41-1.45,8.06-4.33,10.94s-6.46,4.33-10.72,4.33-7.83-1.44-10.72-4.33c-2.89-2.89-4.33-6.53-4.33-10.94Z"/>
          <rect class="cls-11" x="129.49" y="48.11" width="27.36" height="114"/>
          <path class="cls-11" d="M221.83,46.05c9.42,0,17.44,1.56,24.05,4.67,6.61,3.12,12.04,7.07,16.3,11.86,4.25,4.79,7.33,10,9.23,15.62,1.9,5.62,2.85,10.94,2.85,15.96v67.94h-27.36v-67.26c0-4.1-.68-7.6-2.05-10.49-1.37-2.89-3.19-5.32-5.47-7.3-2.28-1.97-4.94-3.42-7.98-4.33-3.04-.91-6.23-1.37-9.58-1.37s-6.54.46-9.58,1.37c-3.04.91-5.7,2.36-7.98,4.33-2.28,1.98-4.1,4.41-5.47,7.3-1.37,2.89-2.05,6.38-2.05,10.49v67.26h-27.36v-67.94c0-5.02.95-10.33,2.85-15.96,1.9-5.62,4.98-10.83,9.23-15.62,4.25-4.79,9.69-8.74,16.3-11.86,6.61-3.11,14.63-4.67,24.05-4.67Z"/>
          <path class="cls-11" d="M398.75,105.1c0-8.81,1.4-16.83,4.22-24.05,2.81-7.22,6.8-13.37,11.97-18.47,5.17-5.09,11.4-9.04,18.7-11.86,7.29-2.81,15.35-4.22,24.17-4.22s16.83,1.41,24.05,4.22c7.22,2.81,13.41,6.77,18.58,11.86,5.17,5.09,9.16,11.25,11.97,18.47,2.81,7.22,4.22,15.24,4.22,24.05s-1.41,16.87-4.22,24.17c-2.81,7.3-6.8,13.53-11.97,18.7-5.17,5.17-11.36,9.16-18.58,11.97-7.22,2.81-15.24,4.22-24.05,4.22s-16.87-1.41-24.17-4.22c-7.3-2.81-13.53-6.8-18.7-11.97-5.17-5.17-9.16-11.4-11.97-18.7-2.81-7.3-4.22-15.35-4.22-24.17ZM426.11,105.33c0,10.64,2.85,18.92,8.55,24.85,5.7,5.93,13.34,8.89,22.91,8.89s17.25-2.96,23.03-8.89c5.77-5.93,8.66-14.21,8.66-24.85s-2.89-18.92-8.66-24.85c-5.78-5.93-13.45-8.89-23.03-8.89s-17.21,2.96-22.91,8.89c-5.7,5.93-8.55,14.21-8.55,24.85Z"/>
          <path class="cls-11" d="M644.07,2.51v102.82c0,9.12-1.56,17.33-4.67,24.62-3.12,7.3-7.34,13.45-12.65,18.47-5.32,5.02-11.63,8.86-18.92,11.51-7.3,2.66-15.13,3.99-23.48,3.99s-16.53-1.41-23.6-4.22c-7.07-2.81-13.19-6.8-18.35-11.97-5.17-5.17-9.16-11.32-11.97-18.47-2.81-7.14-4.22-15.12-4.22-23.94s1.4-16.87,4.22-24.17c2.81-7.3,6.73-13.53,11.74-18.7,5.02-5.17,11.02-9.15,18.01-11.97,6.99-2.81,14.59-4.22,22.8-4.22s15.2,1.29,20.98,3.88c5.77,2.59,10.03,5.63,12.77,9.12V2.51h27.36ZM553.55,105.1c0,10.64,2.85,18.92,8.55,24.85,5.7,5.93,13.34,8.89,22.91,8.89s17.25-2.96,23.03-8.89c5.77-5.93,8.66-14.21,8.66-24.85s-2.89-18.92-8.66-24.85c-5.78-5.93-13.45-8.89-23.03-8.89s-17.21,2.96-22.91,8.89c-5.7,5.93-8.55,14.21-8.55,24.85Z"/>
          <path class="cls-11" d="M712.24,139.07c11.55,0,20.14-4.1,25.76-12.31h29.87c-3.8,11.55-10.53,20.67-20.18,27.36-9.65,6.69-21.4,10.03-35.22,10.03-8.82,0-16.87-1.41-24.17-4.22-7.3-2.81-13.53-6.8-18.7-11.97-5.17-5.17-9.16-11.4-11.97-18.7-2.81-7.3-4.22-15.35-4.22-24.17s1.4-16.83,4.22-24.05c2.81-7.22,6.8-13.37,11.97-18.47,5.17-5.09,11.4-9.04,18.7-11.86,7.29-2.81,15.35-4.22,24.17-4.22s16.83,1.41,24.05,4.22c7.22,2.81,13.41,6.77,18.58,11.86,5.17,5.09,9.16,11.25,11.97,18.47,2.81,7.22,4.22,15.24,4.22,24.05,0,1.67-.04,3.23-.12,4.67-.08,1.45-.19,2.93-.34,4.45h-89.14c1.52,7.9,4.94,14.02,10.26,18.35,5.32,4.33,12.08,6.5,20.29,6.5ZM740.96,89.14c-2.43-5.62-6.12-9.95-11.06-13-4.94-3.04-10.83-4.56-17.67-4.56s-12.69,1.52-17.56,4.56c-4.87,3.04-8.51,7.37-10.94,13h57.23Z"/>
          <g>
            <g>
              <path class="cls-8" d="M387.05,53.63c-.61-.5-1.25-.98-1.88-1.45-10.06-7.42-22.55-11.83-36.01-11.83-1.59,0-3.18.07-4.79.18-28.27,2.18-53.88,28.07-55.77,56.38-.39,5.9.07,11.63,1.25,17.1,5.93,27.29,30.22,47.73,59.31,47.73v-11.47c0-8.95-5.43-16.8-13.51-20.62-11.13-5.29-18.71-16.87-18.1-30.11.11-2.38.5-4.7,1.11-6.9h.02c3.63-12.94,15.46-22.71,29.31-23.21.39-.02.77-.02,1.16-.02,8.04,0,15.39,3.04,20.98,8.02.61.54,1.29,1.02,2,1.41,1.5.89,3.18,1.36,4.95,1.36h.48c3.34,0,6.24-1,8.58-2.66.05,0,.07-.05.11-.07,7.45-5.31,9.13-17.17.79-23.84Z"/>
              <g class="cls-22">
                <path class="cls-7" d="M349.16,150.27v11.47c-29.09,0-53.38-20.44-59.31-47.73,6.17-13.92,14.12-18.84,28.81-21.37-.61,2.2-1,4.52-1.11,6.9-.61,13.24,6.97,24.82,18.1,30.11,8.08,3.81,13.51,11.67,13.51,20.62Z"/>
              </g>
            </g>
            <path class="cls-10" d="M358.69,161.73c17.43,0,31.56-14.13,31.56-31.56-17.43,0-31.56,14.13-31.56,31.56Z"/>
            <path class="cls-6" d="M350.83,91.12c-6.53,0-11.83,5.3-11.83,11.83s5.29,11.83,11.83,11.83,11.83-5.29,11.83-11.83-5.29-11.83-11.83-11.83Z"/>
          </g>
        </g>
        <g>
          <path class="cls-11" d="M566.35,195.74h9.26v42.09h-9.26v-42.09Z"/>
          <path class="cls-11" d="M589.2,195.74h8.54l19.72,25.92v-25.92h9.14v42.09h-7.88l-20.38-26.76v26.76h-9.14v-42.09Z"/>
          <path class="cls-11" d="M639.77,195.74h32.05v8.42h-22.79v8.96h20.08v8.42h-20.08v16.3h-9.26v-42.09Z"/>
          <path class="cls-11" d="M682.29,195.74h19.24c5.35,0,9.5,1.5,12.27,4.27,2.35,2.35,3.61,5.65,3.61,9.62v.12c0,6.79-3.67,11.06-9.02,13.05l10.28,15.03h-10.82l-9.02-13.47h-7.28v13.47h-9.26v-42.09ZM700.93,216.19c4.51,0,7.1-2.41,7.1-5.95v-.12c0-3.97-2.77-6.01-7.28-6.01h-9.2v12.09h9.38Z"/>
          <path class="cls-11" d="M743.26,195.44h8.54l18.04,42.39h-9.68l-3.85-9.44h-17.8l-3.85,9.44h-9.44l18.04-42.39ZM753,220.22l-5.59-13.65-5.59,13.65h11.18Z"/>
        </g>
        <rect class="cls-11" x="52.59" y="236.13" width="513.77" height="1.7"/>
      </g>
      <g>
        <path class="cls-3" d="M3.84,273.55h6.06v14.01h14.84v-14.01h6.06v33.94h-6.06v-14.35h-14.84v14.35H3.84v-33.94Z"/>
        <path class="cls-4" d="M71.73,282.91c7.52,0,12.51,4.99,12.51,12.46s-5,12.56-12.51,12.56-12.56-5.04-12.56-12.56,5.04-12.46,12.56-12.46ZM71.68,302.6c4.07,0,6.74-2.67,6.74-7.18s-2.67-7.18-6.74-7.18-6.69,2.67-6.69,7.18,2.67,7.18,6.69,7.18Z"/>
        <path class="cls-2" d="M134.92,293.04v14.45h-5.82v-14.31c0-3.44-2.52-4.99-5.33-4.99s-5.33,1.55-5.33,4.99v14.31h-5.82v-14.45c0-4.22,3.15-10.23,11.15-10.23s11.15,6.01,11.15,10.23Z"/>
        <path class="cls-1" d="M175.85,282.91c7.52,0,12.51,4.99,12.51,12.46s-5,12.56-12.51,12.56-12.56-5.04-12.56-12.56,5.04-12.46,12.56-12.46ZM175.8,302.6c4.07,0,6.74-2.67,6.74-7.18s-2.67-7.18-6.74-7.18-6.69,2.67-6.69,7.18,2.67,7.18,6.69,7.18Z"/>
        <path class="cls-5" d="M216.73,297.7v-14.45h5.82v14.31c0,3.39,2.52,4.99,5.33,4.99s5.33-1.6,5.33-4.99v-14.31h5.82v14.45c0,4.22-3.15,10.23-11.15,10.23s-11.15-6.01-11.15-10.23Z"/>
        <path class="cls-12" d="M279.39,282.81v5.33c-3.88,0-6.21,1.89-6.21,5.77v13.58h-5.82v-13.58c0-7.37,4.66-11.1,12.03-11.1Z"/>
        <path class="cls-13" d="M310.67,273.02c1.79,0,3.2,1.45,3.2,3.2,0,1.84-1.41,3.25-3.2,3.25s-3.2-1.41-3.2-3.25c0-1.75,1.41-3.2,3.2-3.2ZM307.76,283.25h5.82v24.25h-5.82v-24.25Z"/>
        <path class="cls-14" d="M364.69,293.04v14.45h-5.82v-14.31c0-3.44-2.52-4.99-5.33-4.99s-5.33,1.55-5.33,4.99v14.31h-5.82v-14.45c0-4.22,3.15-10.23,11.15-10.23s11.15,6.01,11.15,10.23Z"/>
        <path class="cls-15" d="M418.08,306.52c0,6.4-4.8,10.96-12.12,10.96-4.9,0-8.83-2.08-11.35-5.29l4.75-3.35c1.31,1.6,3.3,3.3,6.64,3.3,4.02,0,6.26-2.38,6.26-5.62v-1.41c-1.16,1.5-3.64,2.76-7.18,2.76-7.03,0-12.07-5.04-12.07-12.56s5.04-12.46,12.51-12.46,12.56,5.04,12.56,12.56v11.1ZM405.57,288.19c-4.07,0-6.74,2.67-6.74,7.18s2.67,7.18,6.74,7.18,6.69-2.67,6.69-7.18-2.67-7.18-6.69-7.18Z"/>
        <path class="cls-17" d="M485.39,273.55h6.06v28.37h16.39v5.58h-22.45v-33.94Z"/>
        <path class="cls-18" d="M552.99,299.98h6.35c-1.6,4.9-5.92,7.95-11.78,7.95-7.52,0-12.56-5.04-12.56-12.56s5.04-12.46,12.56-12.46,12.51,4.99,12.51,12.46c0,.68-.05,1.31-.1,1.94h-18.96c.63,3.35,3.05,5.29,6.5,5.29,2.42,0,4.32-.92,5.48-2.62ZM553.63,291.98c-1.02-2.38-3.2-3.73-6.11-3.73s-5.04,1.36-6.06,3.73h12.17Z"/>
        <path class="cls-19" d="M613.27,306.52c0,6.4-4.8,10.96-12.12,10.96-4.9,0-8.83-2.08-11.35-5.29l4.75-3.35c1.31,1.6,3.3,3.3,6.64,3.3,4.02,0,6.26-2.38,6.26-5.62v-1.41c-1.16,1.5-3.64,2.76-7.18,2.76-7.03,0-12.07-5.04-12.07-12.56s5.04-12.46,12.51-12.46,12.56,5.04,12.56,12.56v11.1ZM600.76,288.19c-4.07,0-6.74,2.67-6.74,7.18s2.67,7.18,6.74,7.18,6.69-2.67,6.69-7.18-2.67-7.18-6.69-7.18Z"/>
        <path class="cls-20" d="M666.42,295.47v12.03h-5.82v-2.33c-1.16,1.5-3.64,2.76-7.18,2.76-7.03,0-12.07-5.04-12.07-12.56s5.04-12.46,12.51-12.46,12.56,5.04,12.56,12.56ZM653.91,288.24c-4.07,0-6.74,2.67-6.74,7.18s2.67,7.18,6.74,7.18,6.69-2.67,6.69-7.18-2.67-7.18-6.69-7.18Z"/>
        <path class="cls-21" d="M707.26,302.6c2.96,0,5.14-1.41,6.16-3.88h6.06c-1.31,5.63-5.82,9.21-12.17,9.21-7.52,0-12.56-5.04-12.56-12.56s5.04-12.46,12.56-12.46c6.3,0,10.86,3.54,12.12,9.07h-6.06c-1.02-2.38-3.2-3.73-6.11-3.73-4.02,0-6.69,2.67-6.69,7.18s2.67,7.18,6.69,7.18Z"/>
        <path class="cls-16" d="M745.13,283.25h6.06l5.82,16.78,5.82-16.78h6.06l-8.58,24.25c-1.99,5.67-3.39,11.98-11.54,11.98v-5.33c3.25,0,5.87-4.02,4.7-7.27l-8.34-23.62Z"/>
      </g>
    </g>
  </g>
</svg>